<?xml version="1.0" encoding="UTF-8" standalone="no"?>
<!DOCTYPE svg PUBLIC "-//W3C//DTD SVG 1.1//EN"
 "http://www.w3.org/Graphics/SVG/1.1/DTD/svg11.dtd">
<!-- Generated by graphviz version 2.34.0 (20131124.1427)
 -->
<!-- Title: G Pages: 1 -->
<svg width="316pt" height="486pt"
 viewBox="0.00 0.00 316.00 486.00" xmlns="http://www.w3.org/2000/svg" xmlns:xlink="http://www.w3.org/1999/xlink">
<g id="graph0" class="graph" transform="scale(1 1) rotate(0) translate(4 482)">
<title>G</title>
<polygon fill="white" stroke="white" points="-4,4 -4,-482 312,-482 312,4 -4,4"/>
<!-- 4302309312 -->
<g id="node1" class="node"><title>4302309312</title>
<ellipse fill="none" stroke="black" cx="154" cy="-345" rx="154.285" ry="26.7407"/>
<text text-anchor="middle" x="154" y="-348.8" font-family="Times,serif" font-size="14.00">frame</text>
<text text-anchor="middle" x="154" y="-333.8" font-family="Times,serif" font-size="14.00">...ents/lib/python2.7/Queue.py:150</text>
</g>
<!-- 4302308848 -->
<g id="node2" class="node"><title>4302308848</title>
<ellipse fill="none" stroke="black" cx="154" cy="-239" rx="62.3993" ry="26.7407"/>
<text text-anchor="middle" x="154" y="-242.8" font-family="Times,serif" font-size="14.00">frame</text>
<text text-anchor="middle" x="154" y="-227.8" font-family="Times,serif" font-size="14.00">worker.py:8</text>
</g>
<!-- 4302309312&#45;&gt;4302308848 -->
<g id="edge1" class="edge"><title>4302309312&#45;&gt;4302308848</title>
<path fill="none" stroke="black" d="M154,-318.025C154,-305.368 154,-289.939 154,-276.153"/>
<polygon fill="black" stroke="black" points="157.5,-276.005 154,-266.005 150.5,-276.005 157.5,-276.005"/>
<text text-anchor="middle" x="174" y="-288.3" font-family="Times,serif" font-size="14.00">f_back</text>
</g>
<!-- 4299523488 -->
<g id="node3" class="node"><title>4299523488</title>
<ellipse fill="none" stroke="black" cx="154" cy="-133" rx="126.358" ry="26.7407"/>
<text text-anchor="middle" x="154" y="-136.8" font-family="Times,serif" font-size="14.00">instancemethod</text>
<text text-anchor="middle" x="154" y="-121.8" font-family="Times,serif" font-size="14.00">SomeComputation.compute</text>
</g>
<!-- 4302308848&#45;&gt;4299523488 -->
<g id="edge4" class="edge"><title>4302308848&#45;&gt;4299523488</title>
<path fill="none" stroke="black" d="M154,-212.025C154,-199.368 154,-183.939 154,-170.153"/>
<polygon fill="black" stroke="black" points="157.5,-170.005 154,-160.005 150.5,-170.005 157.5,-170.005"/>
<text text-anchor="middle" x="183" y="-182.3" font-family="Times,serif" font-size="14.00">local &#39;job&#39;</text>
</g>
<!-- 4299951824 -->
<g id="node4" class="node"><title>4299951824</title>
<ellipse fill="none" stroke="black" cx="154" cy="-27" rx="132.404" ry="26.7407"/>
<text text-anchor="middle" x="154" y="-30.8" font-family="Times,serif" font-size="14.00">object</text>
<text text-anchor="middle" x="154" y="-15.8" font-family="Times,serif" font-size="14.00">__main__.SomeComputation</text>
</g>
<!-- 4299523488&#45;&gt;4299951824 -->
<g id="edge2" class="edge"><title>4299523488&#45;&gt;4299951824</title>
<path fill="none" stroke="black" d="M154,-106.025C154,-93.3676 154,-77.939 154,-64.1533"/>
<polygon fill="black" stroke="black" points="157.5,-64.0046 154,-54.0046 150.5,-64.0047 157.5,-64.0046"/>
<text text-anchor="middle" x="179" y="-76.3" font-family="Times,serif" font-size="14.00">__self__</text>
</g>
<!-- 4302310256 -->
<g id="node5" class="node"><title>4302310256</title>
<ellipse fill="none" stroke="black" cx="154" cy="-451" rx="150.982" ry="26.7407"/>
<text text-anchor="middle" x="154" y="-454.8" font-family="Times,serif" font-size="14.00">frame</text>
<text text-anchor="middle" x="154" y="-439.8" font-family="Times,serif" font-size="14.00">.../lib/python2.7/threading.py:234</text>
</g>
<!-- 4302310256&#45;&gt;4302309312 -->
<g id="edge3" class="edge"><title>4302310256&#45;&gt;4302309312</title>
<path fill="none" stroke="black" d="M154,-424.025C154,-411.368 154,-395.939 154,-382.153"/>
<polygon fill="black" stroke="black" points="157.5,-382.005 154,-372.005 150.5,-382.005 157.5,-382.005"/>
<text text-anchor="middle" x="174" y="-394.3" font-family="Times,serif" font-size="14.00">f_back</text>
</g>
</g>
</svg>
