<?xml version="1.0" encoding="UTF-8" standalone="no"?>
<!DOCTYPE svg PUBLIC "-//W3C//DTD SVG 1.1//EN"
 "http://www.w3.org/Graphics/SVG/1.1/DTD/svg11.dtd">
<!-- Generated by graphviz version 2.34.0 (20131124.1427)
 -->
<!-- Title: G Pages: 1 -->
<svg width="272pt" height="486pt"
 viewBox="0.00 0.00 272.00 486.00" xmlns="http://www.w3.org/2000/svg" xmlns:xlink="http://www.w3.org/1999/xlink">
<g id="graph0" class="graph" transform="scale(1 1) rotate(0) translate(4 482)">
<title>G</title>
<polygon fill="white" stroke="white" points="-4,4 -4,-482 268,-482 268,4 -4,4"/>
<!-- 4300457024 -->
<g id="node1" class="node"><title>4300457024</title>
<ellipse fill="none" stroke="black" cx="132" cy="-345" rx="85.3397" ry="26.7407"/>
<text text-anchor="middle" x="132" y="-348.8" font-family="Times,serif" font-size="14.00">object</text>
<text text-anchor="middle" x="132" y="-333.8" font-family="Times,serif" font-size="14.00">__builtin__.frame</text>
</g>
<!-- 4300456560 -->
<g id="node2" class="node"><title>4300456560</title>
<ellipse fill="none" stroke="black" cx="132" cy="-239" rx="85.3397" ry="26.7407"/>
<text text-anchor="middle" x="132" y="-242.8" font-family="Times,serif" font-size="14.00">object</text>
<text text-anchor="middle" x="132" y="-227.8" font-family="Times,serif" font-size="14.00">__builtin__.frame</text>
</g>
<!-- 4300457024&#45;&gt;4300456560 -->
<g id="edge1" class="edge"><title>4300457024&#45;&gt;4300456560</title>
<path fill="none" stroke="black" d="M132,-318.025C132,-305.368 132,-289.939 132,-276.153"/>
<polygon fill="black" stroke="black" points="135.5,-276.005 132,-266.005 128.5,-276.005 135.5,-276.005"/>
<text text-anchor="middle" x="152" y="-288.3" font-family="Times,serif" font-size="14.00">f_back</text>
</g>
<!-- 4299523488 -->
<g id="node4" class="node"><title>4299523488</title>
<ellipse fill="none" stroke="black" cx="132" cy="-133" rx="126.358" ry="26.7407"/>
<text text-anchor="middle" x="132" y="-136.8" font-family="Times,serif" font-size="14.00">instancemethod</text>
<text text-anchor="middle" x="132" y="-121.8" font-family="Times,serif" font-size="14.00">SomeComputation.compute</text>
</g>
<!-- 4300456560&#45;&gt;4299523488 -->
<g id="edge4" class="edge"><title>4300456560&#45;&gt;4299523488</title>
<path fill="none" stroke="black" d="M132,-212.025C132,-199.368 132,-183.939 132,-170.153"/>
<polygon fill="black" stroke="black" points="135.5,-170.005 132,-160.005 128.5,-170.005 135.5,-170.005"/>
<text text-anchor="middle" x="161" y="-182.3" font-family="Times,serif" font-size="14.00">local &#39;job&#39;</text>
</g>
<!-- 4300457968 -->
<g id="node3" class="node"><title>4300457968</title>
<ellipse fill="none" stroke="black" cx="132" cy="-451" rx="85.3397" ry="26.7407"/>
<text text-anchor="middle" x="132" y="-454.8" font-family="Times,serif" font-size="14.00">object</text>
<text text-anchor="middle" x="132" y="-439.8" font-family="Times,serif" font-size="14.00">__builtin__.frame</text>
</g>
<!-- 4300457968&#45;&gt;4300457024 -->
<g id="edge2" class="edge"><title>4300457968&#45;&gt;4300457024</title>
<path fill="none" stroke="black" d="M132,-424.025C132,-411.368 132,-395.939 132,-382.153"/>
<polygon fill="black" stroke="black" points="135.5,-382.005 132,-372.005 128.5,-382.005 135.5,-382.005"/>
<text text-anchor="middle" x="152" y="-394.3" font-family="Times,serif" font-size="14.00">f_back</text>
</g>
<!-- 4299947728 -->
<g id="node5" class="node"><title>4299947728</title>
<ellipse fill="none" stroke="black" cx="132" cy="-27" rx="132.404" ry="26.7407"/>
<text text-anchor="middle" x="132" y="-30.8" font-family="Times,serif" font-size="14.00">object</text>
<text text-anchor="middle" x="132" y="-15.8" font-family="Times,serif" font-size="14.00">__main__.SomeComputation</text>
</g>
<!-- 4299523488&#45;&gt;4299947728 -->
<g id="edge3" class="edge"><title>4299523488&#45;&gt;4299947728</title>
<path fill="none" stroke="black" d="M132,-106.025C132,-93.3676 132,-77.939 132,-64.1533"/>
<polygon fill="black" stroke="black" points="135.5,-64.0046 132,-54.0046 128.5,-64.0047 135.5,-64.0046"/>
<text text-anchor="middle" x="157" y="-76.3" font-family="Times,serif" font-size="14.00">__self__</text>
</g>
</g>
</svg>
