<?xml version="1.0" encoding="UTF-8" standalone="no"?>
<!DOCTYPE svg PUBLIC "-//W3C//DTD SVG 1.1//EN"
 "http://www.w3.org/Graphics/SVG/1.1/DTD/svg11.dtd">
<!-- Generated by graphviz version 2.34.0 (20131223.1621)
 -->
<!-- Title: G Pages: 1 -->
<svg width="312pt" height="486pt"
 viewBox="0.00 0.00 312.00 486.00" xmlns="http://www.w3.org/2000/svg" xmlns:xlink="http://www.w3.org/1999/xlink">
<g id="graph0" class="graph" transform="scale(1 1) rotate(0) translate(4 482)">
<title>G</title>
<polygon fill="white" stroke="white" points="-4,4 -4,-482 308,-482 308,4 -4,4"/>
<!-- 140586901640384 -->
<g id="node1" class="node"><title>140586901640384</title>
<ellipse fill="none" stroke="black" cx="152" cy="-451" rx="150.982" ry="26.7407"/>
<text text-anchor="middle" x="152" y="-454.8" font-family="Times,serif" font-size="14.00">frame</text>
<text text-anchor="middle" x="152" y="-439.8" font-family="Times,serif" font-size="14.00">.../lib/python3.3/threading.py:253</text>
</g>
<!-- 140586901618288 -->
<g id="node2" class="node"><title>140586901618288</title>
<ellipse fill="none" stroke="black" cx="152" cy="-345" rx="152.602" ry="26.7407"/>
<text text-anchor="middle" x="152" y="-348.8" font-family="Times,serif" font-size="14.00">frame</text>
<text text-anchor="middle" x="152" y="-333.8" font-family="Times,serif" font-size="14.00">.../3.3/lib/python3.3/queue.py:150</text>
</g>
<!-- 140586901640384&#45;&gt;140586901618288 -->
<g id="edge1" class="edge"><title>140586901640384&#45;&gt;140586901618288</title>
<path fill="none" stroke="black" d="M152,-424.025C152,-411.368 152,-395.939 152,-382.153"/>
<polygon fill="black" stroke="black" points="155.5,-382.005 152,-372.005 148.5,-382.005 155.5,-382.005"/>
<text text-anchor="middle" x="172" y="-394.3" font-family="Times,serif" font-size="14.00">f_back</text>
</g>
<!-- 4335233840 -->
<g id="node5" class="node"><title>4335233840</title>
<ellipse fill="none" stroke="black" cx="152" cy="-239" rx="62.3993" ry="26.7407"/>
<text text-anchor="middle" x="152" y="-242.8" font-family="Times,serif" font-size="14.00">frame</text>
<text text-anchor="middle" x="152" y="-227.8" font-family="Times,serif" font-size="14.00">worker.py:8</text>
</g>
<!-- 140586901618288&#45;&gt;4335233840 -->
<g id="edge4" class="edge"><title>140586901618288&#45;&gt;4335233840</title>
<path fill="none" stroke="black" d="M152,-318.025C152,-305.368 152,-289.939 152,-276.153"/>
<polygon fill="black" stroke="black" points="155.5,-276.005 152,-266.005 148.5,-276.005 155.5,-276.005"/>
<text text-anchor="middle" x="172" y="-288.3" font-family="Times,serif" font-size="14.00">f_back</text>
</g>
<!-- 4334931480 -->
<g id="node3" class="node"><title>4334931480</title>
<ellipse fill="none" stroke="black" cx="152" cy="-133" rx="126.358" ry="26.7407"/>
<text text-anchor="middle" x="152" y="-136.8" font-family="Times,serif" font-size="14.00">instancemethod</text>
<text text-anchor="middle" x="152" y="-121.8" font-family="Times,serif" font-size="14.00">SomeComputation.compute</text>
</g>
<!-- 4335338064 -->
<g id="node4" class="node"><title>4335338064</title>
<ellipse fill="none" stroke="black" cx="152" cy="-27" rx="132.404" ry="26.7407"/>
<text text-anchor="middle" x="152" y="-30.8" font-family="Times,serif" font-size="14.00">object</text>
<text text-anchor="middle" x="152" y="-15.8" font-family="Times,serif" font-size="14.00">__main__.SomeComputation</text>
</g>
<!-- 4334931480&#45;&gt;4335338064 -->
<g id="edge2" class="edge"><title>4334931480&#45;&gt;4335338064</title>
<path fill="none" stroke="black" d="M152,-106.025C152,-93.3676 152,-77.939 152,-64.1533"/>
<polygon fill="black" stroke="black" points="155.5,-64.0046 152,-54.0046 148.5,-64.0047 155.5,-64.0046"/>
<text text-anchor="middle" x="177" y="-76.3" font-family="Times,serif" font-size="14.00">__self__</text>
</g>
<!-- 4335233840&#45;&gt;4334931480 -->
<g id="edge3" class="edge"><title>4335233840&#45;&gt;4334931480</title>
<path fill="none" stroke="black" d="M152,-212.025C152,-199.368 152,-183.939 152,-170.153"/>
<polygon fill="black" stroke="black" points="155.5,-170.005 152,-160.005 148.5,-170.005 155.5,-170.005"/>
<text text-anchor="middle" x="181" y="-182.3" font-family="Times,serif" font-size="14.00">local &#39;job&#39;</text>
</g>
</g>
</svg>
