<?xml version="1.0" encoding="UTF-8" standalone="no"?>
<!DOCTYPE svg PUBLIC "-//W3C//DTD SVG 1.1//EN"
 "http://www.w3.org/Graphics/SVG/1.1/DTD/svg11.dtd">
<!-- Generated by graphviz version 2.34.0 (20131223.1621)
 -->
<!-- Title: G Pages: 1 -->
<svg width="520pt" height="556pt"
 viewBox="0.00 0.00 520.00 556.00" xmlns="http://www.w3.org/2000/svg" xmlns:xlink="http://www.w3.org/1999/xlink">
<g id="graph0" class="graph" transform="scale(1 1) rotate(0) translate(4 552)">
<title>G</title>
<polygon fill="white" stroke="white" points="-4,4 -4,-552 516,-552 516,4 -4,4"/>
<!-- 140388443014240 -->
<g id="node1" class="node"><title>140388443014240</title>
<ellipse fill="none" stroke="black" cx="215" cy="-221" rx="28.4872" ry="26.7407"/>
<text text-anchor="middle" x="215" y="-224.8" font-family="Times,serif" font-size="14.00">type</text>
<text text-anchor="middle" x="215" y="-209.8" font-family="Times,serif" font-size="14.00">A</text>
</g>
<!-- 4494707384 -->
<g id="node2" class="node"><title>4494707384</title>
<ellipse fill="none" stroke="black" cx="345" cy="-124" rx="36.096" ry="18"/>
<text text-anchor="middle" x="345" y="-120.3" font-family="Times,serif" font-size="14.00">dict[4]</text>
</g>
<!-- 140388443014240&#45;&gt;4494707384 -->
<g id="edge1" class="edge"><title>140388443014240&#45;&gt;4494707384</title>
<path fill="none" stroke="black" d="M237.053,-203.885C259.118,-187.76 293.134,-162.902 317.072,-145.409"/>
<polygon fill="black" stroke="black" points="319.386,-148.053 325.395,-139.327 315.256,-142.401 319.386,-148.053"/>
</g>
<!-- 4494894360 -->
<g id="node3" class="node"><title>4494894360</title>
<ellipse fill="none" stroke="black" cx="150" cy="-124" rx="40.4202" ry="18"/>
<text text-anchor="middle" x="150" y="-120.3" font-family="Times,serif" font-size="14.00">tuple[2]</text>
</g>
<!-- 140388443014240&#45;&gt;4494894360 -->
<g id="edge2" class="edge"><title>140388443014240&#45;&gt;4494894360</title>
<path fill="none" stroke="black" d="M196.211,-200.179C189.74,-192.869 182.696,-184.333 177,-176 171.717,-168.272 166.694,-159.391 162.444,-151.229"/>
<polygon fill="black" stroke="black" points="165.466,-149.446 157.842,-142.089 159.213,-152.594 165.466,-149.446"/>
<text text-anchor="middle" x="204.5" y="-164.3" font-family="Times,serif" font-size="14.00">__mro__</text>
</g>
<!-- 4495418768 -->
<g id="node4" class="node"><title>4495418768</title>
<ellipse fill="none" stroke="black" cx="250" cy="-124" rx="40.4202" ry="18"/>
<text text-anchor="middle" x="250" y="-120.3" font-family="Times,serif" font-size="14.00">tuple[1]</text>
</g>
<!-- 140388443014240&#45;&gt;4495418768 -->
<g id="edge3" class="edge"><title>140388443014240&#45;&gt;4495418768</title>
<path fill="none" stroke="black" d="M227.121,-196.585C230.255,-190.025 233.459,-182.821 236,-176 238.853,-168.342 241.414,-159.845 243.542,-152.018"/>
<polygon fill="black" stroke="black" points="246.955,-152.799 246.077,-142.24 240.179,-151.041 246.955,-152.799"/>
</g>
<!-- 4495441344 -->
<g id="node7" class="node"><title>4495441344</title>
<ellipse fill="none" stroke="black" cx="113" cy="-27" rx="113.267" ry="26.7407"/>
<text text-anchor="middle" x="113" y="-30.8" font-family="Times,serif" font-size="14.00">object</text>
<text text-anchor="middle" x="113" y="-15.8" font-family="Times,serif" font-size="14.00">builtins.getset_descriptor</text>
</g>
<!-- 4494707384&#45;&gt;4495441344 -->
<g id="edge9" class="edge"><title>4494707384&#45;&gt;4495441344</title>
<path fill="none" stroke="black" d="M317.538,-111.906C311.498,-109.733 305.087,-107.626 299,-106 252.834,-93.6644 236.904,-106.866 193,-88 176.885,-81.0751 161.029,-70.271 147.738,-59.7281"/>
<polygon fill="black" stroke="black" points="149.768,-56.8662 139.815,-53.2345 145.331,-62.2803 149.768,-56.8662"/>
<text text-anchor="middle" x="243" y="-76.3" font-family="Times,serif" font-size="14.00">value[&#39;__dict__&#39;]</text>
</g>
<!-- 4496109888 -->
<g id="node9" class="node"><title>4496109888</title>
<ellipse fill="none" stroke="black" cx="398" cy="-27" rx="113.267" ry="26.7407"/>
<text text-anchor="middle" x="398" y="-30.8" font-family="Times,serif" font-size="14.00">object</text>
<text text-anchor="middle" x="398" y="-15.8" font-family="Times,serif" font-size="14.00">builtins.getset_descriptor</text>
</g>
<!-- 4494707384&#45;&gt;4496109888 -->
<g id="edge8" class="edge"><title>4494707384&#45;&gt;4496109888</title>
<path fill="none" stroke="black" d="M320.918,-110.523C305.368,-100.734 289.644,-86.397 299,-72 303.788,-64.6321 310.126,-58.4879 317.288,-53.3664"/>
<polygon fill="black" stroke="black" points="319.467,-56.1285 326.031,-47.8117 315.714,-50.22 319.467,-56.1285"/>
<text text-anchor="middle" x="361.5" y="-76.3" font-family="Times,serif" font-size="14.00">value[&#39;__weakref__&#39;]</text>
</g>
<!-- 4494894360&#45;&gt;140388443014240 -->
<g id="edge13" class="edge"><title>4494894360&#45;&gt;140388443014240</title>
<path fill="none" stroke="black" d="M131.799,-140.511C121.99,-150.795 113.326,-164.468 121,-176 132.478,-193.248 145.202,-185.289 164,-194 169.74,-196.66 175.779,-199.605 181.613,-202.528"/>
<polygon fill="black" stroke="black" points="180.039,-205.654 190.54,-207.06 183.208,-199.413 180.039,-205.654"/>
<text text-anchor="middle" x="142.5" y="-164.3" font-family="Times,serif" font-size="14.00">item[0]</text>
</g>
<!-- 4494707600 -->
<g id="node5" class="node"><title>4494707600</title>
<ellipse fill="none" stroke="black" cx="119" cy="-221" rx="36.096" ry="18"/>
<text text-anchor="middle" x="119" y="-217.3" font-family="Times,serif" font-size="14.00">dict[1]</text>
</g>
<!-- 4494905680 -->
<g id="node6" class="node"><title>4494905680</title>
<ellipse fill="none" stroke="black" cx="187" cy="-521" rx="62.3993" ry="26.7407"/>
<text text-anchor="middle" x="187" y="-524.8" font-family="Times,serif" font-size="14.00">object</text>
<text text-anchor="middle" x="187" y="-509.8" font-family="Times,serif" font-size="14.00">__main__.A</text>
</g>
<!-- 4494707600&#45;&gt;4494905680 -->
<g id="edge4" class="edge"><title>4494707600&#45;&gt;4494905680</title>
<path fill="none" stroke="black" d="M115.749,-239.263C110.628,-269.764 102.482,-334.973 115,-388 123.53,-424.135 144.807,-460.863 162.033,-486.371"/>
<polygon fill="black" stroke="black" points="159.366,-488.668 167.93,-494.906 165.125,-484.689 159.366,-488.668"/>
<text text-anchor="middle" x="149" y="-376.3" font-family="Times,serif" font-size="14.00">value[&#39;foo&#39;]</text>
</g>
<!-- 4494905680&#45;&gt;140388443014240 -->
<g id="edge7" class="edge"><title>4494905680&#45;&gt;140388443014240</title>
<path fill="none" stroke="black" d="M222.392,-498.805C230.338,-492.435 237.912,-484.769 243,-476 262.841,-441.804 251.621,-427.292 256,-388 262.019,-333.996 286.135,-315.626 264,-266 260.067,-257.182 253.396,-249.393 246.222,-242.914"/>
<polygon fill="black" stroke="black" points="248.285,-240.079 238.345,-236.412 243.829,-245.477 248.285,-240.079"/>
<text text-anchor="middle" x="287.5" y="-376.3" font-family="Times,serif" font-size="14.00">__class__</text>
</g>
<!-- 4495342408 -->
<g id="node8" class="node"><title>4495342408</title>
<ellipse fill="none" stroke="black" cx="187" cy="-424" rx="36.096" ry="18"/>
<text text-anchor="middle" x="187" y="-420.3" font-family="Times,serif" font-size="14.00">dict[1]</text>
</g>
<!-- 4494905680&#45;&gt;4495342408 -->
<g id="edge6" class="edge"><title>4494905680&#45;&gt;4495342408</title>
<path fill="none" stroke="black" d="M187,-494.041C187,-481.165 187,-465.61 187,-452.527"/>
<polygon fill="black" stroke="black" points="190.5,-452.231 187,-442.231 183.5,-452.231 190.5,-452.231"/>
<text text-anchor="middle" x="213" y="-464.3" font-family="Times,serif" font-size="14.00">__dict__</text>
</g>
<!-- 4495441344&#45;&gt;140388443014240 -->
<g id="edge5" class="edge"><title>4495441344&#45;&gt;140388443014240</title>
<path fill="none" stroke="black" d="M103.626,-53.8314C93.315,-87.3656 82.2093,-145.226 115,-176 131.917,-191.877 142.738,-184.715 164,-194 169.798,-196.532 175.865,-199.412 181.71,-202.311"/>
<polygon fill="black" stroke="black" points="180.139,-205.439 190.641,-206.835 183.302,-199.194 180.139,-205.439"/>
</g>
<!-- 4495028368 -->
<g id="node10" class="node"><title>4495028368</title>
<ellipse fill="none" stroke="black" cx="187" cy="-327" rx="62.3993" ry="26.7407"/>
<text text-anchor="middle" x="187" y="-330.8" font-family="Times,serif" font-size="14.00">object</text>
<text text-anchor="middle" x="187" y="-315.8" font-family="Times,serif" font-size="14.00">__main__.A</text>
</g>
<!-- 4495342408&#45;&gt;4495028368 -->
<g id="edge14" class="edge"><title>4495342408&#45;&gt;4495028368</title>
<path fill="none" stroke="black" d="M187,-405.576C187,-393.938 187,-378.208 187,-363.954"/>
<polygon fill="black" stroke="black" points="190.5,-363.916 187,-353.916 183.5,-363.916 190.5,-363.916"/>
<text text-anchor="middle" x="221" y="-376.3" font-family="Times,serif" font-size="14.00">value[&#39;foo&#39;]</text>
</g>
<!-- 4496109888&#45;&gt;140388443014240 -->
<g id="edge12" class="edge"><title>4496109888&#45;&gt;140388443014240</title>
<path fill="none" stroke="black" d="M416.376,-53.9659C419.522,-59.6612 422.315,-65.8377 424,-72 433.12,-105.363 416.137,-119.348 390,-142 349.273,-177.296 290,-199.158 251.97,-210.453"/>
<polygon fill="black" stroke="black" points="250.956,-207.103 242.312,-213.23 252.89,-213.83 250.956,-207.103"/>
</g>
<!-- 4495028368&#45;&gt;140388443014240 -->
<g id="edge11" class="edge"><title>4495028368&#45;&gt;140388443014240</title>
<path fill="none" stroke="black" d="M193.921,-300.292C197.414,-287.32 201.704,-271.386 205.5,-257.286"/>
<polygon fill="black" stroke="black" points="208.938,-257.978 208.158,-247.412 202.179,-256.158 208.938,-257.978"/>
<text text-anchor="middle" x="231.5" y="-270.3" font-family="Times,serif" font-size="14.00">__class__</text>
</g>
<!-- 4495028368&#45;&gt;4494707600 -->
<g id="edge10" class="edge"><title>4495028368&#45;&gt;4494707600</title>
<path fill="none" stroke="black" d="M160.657,-302.311C154.681,-296.096 148.714,-289.127 144,-282 137.184,-271.695 131.626,-259.23 127.496,-248.338"/>
<polygon fill="black" stroke="black" points="130.776,-247.117 124.109,-238.883 124.186,-249.478 130.776,-247.117"/>
<text text-anchor="middle" x="170" y="-270.3" font-family="Times,serif" font-size="14.00">__dict__</text>
</g>
</g>
</svg>
