<?xml version="1.0" encoding="UTF-8" standalone="no"?>
<!DOCTYPE svg PUBLIC "-//W3C//DTD SVG 1.1//EN"
 "http://www.w3.org/Graphics/SVG/1.1/DTD/svg11.dtd">
<!-- Generated by graphviz version 2.34.0 (20140102.1140)
 -->
<!-- Title: G Pages: 1 -->
<svg width="551pt" height="556pt"
 viewBox="0.00 0.00 551.00 556.00" xmlns="http://www.w3.org/2000/svg" xmlns:xlink="http://www.w3.org/1999/xlink">
<g id="graph0" class="graph" transform="scale(1 1) rotate(0) translate(4 552)">
<title>G</title>
<polygon fill="white" stroke="white" points="-4,4 -4,-552 547,-552 547,4 -4,4"/>
<!-- 140709181590192 -->
<g id="node1" class="node"><title>140709181590192</title>
<ellipse fill="none" stroke="black" cx="257" cy="-221" rx="28.4872" ry="26.7407"/>
<text text-anchor="middle" x="257" y="-224.8" font-family="Times,serif" font-size="14.00">type</text>
<text text-anchor="middle" x="257" y="-209.8" font-family="Times,serif" font-size="14.00">A</text>
</g>
<!-- 4377655632 -->
<g id="node2" class="node"><title>4377655632</title>
<ellipse fill="none" stroke="black" cx="387" cy="-124" rx="36.096" ry="18"/>
<text text-anchor="middle" x="387" y="-120.3" font-family="Times,serif" font-size="14.00">dict[4]</text>
</g>
<!-- 140709181590192&#45;&gt;4377655632 -->
<g id="edge1" class="edge"><title>140709181590192&#45;&gt;4377655632</title>
<path fill="none" stroke="black" d="M279.053,-203.885C301.118,-187.76 335.134,-162.902 359.072,-145.409"/>
<polygon fill="black" stroke="black" points="361.386,-148.053 367.395,-139.327 357.256,-142.401 361.386,-148.053"/>
</g>
<!-- 4377302008 -->
<g id="node3" class="node"><title>4377302008</title>
<ellipse fill="none" stroke="black" cx="192" cy="-124" rx="40.4202" ry="18"/>
<text text-anchor="middle" x="192" y="-120.3" font-family="Times,serif" font-size="14.00">tuple[2]</text>
</g>
<!-- 140709181590192&#45;&gt;4377302008 -->
<g id="edge2" class="edge"><title>140709181590192&#45;&gt;4377302008</title>
<path fill="none" stroke="black" d="M238.211,-200.179C231.74,-192.869 224.696,-184.333 219,-176 213.717,-168.272 208.694,-159.391 204.444,-151.229"/>
<polygon fill="black" stroke="black" points="207.466,-149.446 199.842,-142.089 201.213,-152.594 207.466,-149.446"/>
<text text-anchor="middle" x="246.5" y="-164.3" font-family="Times,serif" font-size="14.00">__mro__</text>
</g>
<!-- 4377811856 -->
<g id="node4" class="node"><title>4377811856</title>
<ellipse fill="none" stroke="black" cx="292" cy="-124" rx="40.4202" ry="18"/>
<text text-anchor="middle" x="292" y="-120.3" font-family="Times,serif" font-size="14.00">tuple[1]</text>
</g>
<!-- 140709181590192&#45;&gt;4377811856 -->
<g id="edge3" class="edge"><title>140709181590192&#45;&gt;4377811856</title>
<path fill="none" stroke="black" d="M269.121,-196.585C272.255,-190.025 275.459,-182.821 278,-176 280.853,-168.342 283.414,-159.845 285.542,-152.018"/>
<polygon fill="black" stroke="black" points="288.955,-152.799 288.077,-142.24 282.179,-151.041 288.955,-152.799"/>
</g>
<!-- 4378534288 -->
<g id="node5" class="node"><title>4378534288</title>
<ellipse fill="none" stroke="black" cx="113" cy="-27" rx="113.267" ry="26.7407"/>
<text text-anchor="middle" x="113" y="-30.8" font-family="Times,serif" font-size="14.00">object</text>
<text text-anchor="middle" x="113" y="-15.8" font-family="Times,serif" font-size="14.00">builtins.getset_descriptor</text>
</g>
<!-- 4377655632&#45;&gt;4378534288 -->
<g id="edge14" class="edge"><title>4377655632&#45;&gt;4378534288</title>
<path fill="none" stroke="black" d="M359.536,-111.914C353.497,-109.74 347.086,-107.631 341,-106 295.267,-93.7415 281.064,-102.525 236,-88 211.365,-80.0596 185.423,-68.0121 163.748,-56.7909"/>
<polygon fill="black" stroke="black" points="165.215,-53.6079 154.736,-52.0468 161.954,-59.8021 165.215,-53.6079"/>
<text text-anchor="middle" x="298.5" y="-76.3" font-family="Times,serif" font-size="14.00">value[&#39;__weakref__&#39;]</text>
</g>
<!-- 4378534528 -->
<g id="node9" class="node"><title>4378534528</title>
<ellipse fill="none" stroke="black" cx="414" cy="-27" rx="113.267" ry="26.7407"/>
<text text-anchor="middle" x="414" y="-30.8" font-family="Times,serif" font-size="14.00">object</text>
<text text-anchor="middle" x="414" y="-15.8" font-family="Times,serif" font-size="14.00">builtins.getset_descriptor</text>
</g>
<!-- 4377655632&#45;&gt;4378534528 -->
<g id="edge13" class="edge"><title>4377655632&#45;&gt;4378534528</title>
<path fill="none" stroke="black" d="M373.41,-106.838C366.653,-96.7674 360.911,-83.5696 366,-72 367.741,-68.042 370.034,-64.2844 372.674,-60.7558"/>
<polygon fill="black" stroke="black" points="375.514,-62.82 379.369,-52.9513 370.201,-58.2622 375.514,-62.82"/>
<text text-anchor="middle" x="416" y="-76.3" font-family="Times,serif" font-size="14.00">value[&#39;__dict__&#39;]</text>
</g>
<!-- 4377302008&#45;&gt;140709181590192 -->
<g id="edge7" class="edge"><title>4377302008&#45;&gt;140709181590192</title>
<path fill="none" stroke="black" d="M173.957,-140.408C164.215,-150.649 155.566,-164.312 163,-176 175.383,-195.468 198.895,-206.469 219.306,-212.603"/>
<polygon fill="black" stroke="black" points="218.447,-215.996 229.014,-215.238 220.281,-209.24 218.447,-215.996"/>
<text text-anchor="middle" x="184.5" y="-164.3" font-family="Times,serif" font-size="14.00">item[0]</text>
</g>
<!-- 4378534288&#45;&gt;140709181590192 -->
<g id="edge4" class="edge"><title>4378534288&#45;&gt;140709181590192</title>
<path fill="none" stroke="black" d="M88.9408,-53.4433C69.1812,-77.5448 47.2575,-114.101 66,-142 100.003,-192.616 173.247,-210.406 218.504,-216.645"/>
<polygon fill="black" stroke="black" points="218.181,-220.132 228.539,-217.903 219.052,-213.186 218.181,-220.132"/>
<text text-anchor="middle" x="104" y="-120.3" font-family="Times,serif" font-size="14.00">__objclass__</text>
</g>
<!-- 4377441744 -->
<g id="node6" class="node"><title>4377441744</title>
<ellipse fill="none" stroke="black" cx="323" cy="-521" rx="62.3993" ry="26.7407"/>
<text text-anchor="middle" x="323" y="-524.8" font-family="Times,serif" font-size="14.00">object</text>
<text text-anchor="middle" x="323" y="-509.8" font-family="Times,serif" font-size="14.00">__main__.A</text>
</g>
<!-- 4377441744&#45;&gt;140709181590192 -->
<g id="edge6" class="edge"><title>4377441744&#45;&gt;140709181590192</title>
<path fill="none" stroke="black" d="M306.489,-494.762C297.236,-479.849 285.986,-460.349 278,-442 261.674,-404.488 257.067,-394.458 251,-354 247.441,-330.265 250.079,-323.982 251,-300 251.526,-286.293 252.571,-271.26 253.644,-258.082"/>
<polygon fill="black" stroke="black" points="257.144,-258.231 254.5,-247.971 250.169,-257.64 257.144,-258.231"/>
<text text-anchor="middle" x="286.5" y="-376.3" font-family="Times,serif" font-size="14.00">__class__</text>
</g>
<!-- 4377115536 -->
<g id="node7" class="node"><title>4377115536</title>
<ellipse fill="none" stroke="black" cx="323" cy="-424" rx="36.096" ry="18"/>
<text text-anchor="middle" x="323" y="-420.3" font-family="Times,serif" font-size="14.00">dict[1]</text>
</g>
<!-- 4377441744&#45;&gt;4377115536 -->
<g id="edge5" class="edge"><title>4377441744&#45;&gt;4377115536</title>
<path fill="none" stroke="black" d="M323,-494.041C323,-481.165 323,-465.61 323,-452.527"/>
<polygon fill="black" stroke="black" points="326.5,-452.231 323,-442.231 319.5,-452.231 326.5,-452.231"/>
<text text-anchor="middle" x="349" y="-464.3" font-family="Times,serif" font-size="14.00">__dict__</text>
</g>
<!-- 4377319056 -->
<g id="node8" class="node"><title>4377319056</title>
<ellipse fill="none" stroke="black" cx="323" cy="-327" rx="62.3993" ry="26.7407"/>
<text text-anchor="middle" x="323" y="-330.8" font-family="Times,serif" font-size="14.00">object</text>
<text text-anchor="middle" x="323" y="-315.8" font-family="Times,serif" font-size="14.00">__main__.A</text>
</g>
<!-- 4377115536&#45;&gt;4377319056 -->
<g id="edge8" class="edge"><title>4377115536&#45;&gt;4377319056</title>
<path fill="none" stroke="black" d="M323,-405.576C323,-393.938 323,-378.208 323,-363.954"/>
<polygon fill="black" stroke="black" points="326.5,-363.916 323,-353.916 319.5,-363.916 326.5,-363.916"/>
<text text-anchor="middle" x="357" y="-376.3" font-family="Times,serif" font-size="14.00">value[&#39;foo&#39;]</text>
</g>
<!-- 4377319056&#45;&gt;140709181590192 -->
<g id="edge12" class="edge"><title>4377319056&#45;&gt;140709181590192</title>
<path fill="none" stroke="black" d="M294.378,-302.795C287.998,-296.566 281.731,-289.469 277,-282 272.228,-274.467 268.47,-265.674 265.564,-257.179"/>
<polygon fill="black" stroke="black" points="268.847,-255.947 262.534,-247.438 262.162,-258.026 268.847,-255.947"/>
<text text-anchor="middle" x="305.5" y="-270.3" font-family="Times,serif" font-size="14.00">__class__</text>
</g>
<!-- 4377497256 -->
<g id="node10" class="node"><title>4377497256</title>
<ellipse fill="none" stroke="black" cx="355" cy="-221" rx="36.096" ry="18"/>
<text text-anchor="middle" x="355" y="-217.3" font-family="Times,serif" font-size="14.00">dict[1]</text>
</g>
<!-- 4377319056&#45;&gt;4377497256 -->
<g id="edge11" class="edge"><title>4377319056&#45;&gt;4377497256</title>
<path fill="none" stroke="black" d="M330.91,-300.292C335.738,-284.601 341.9,-264.576 346.783,-248.706"/>
<polygon fill="black" stroke="black" points="350.184,-249.552 349.78,-238.964 343.494,-247.493 350.184,-249.552"/>
<text text-anchor="middle" x="367" y="-270.3" font-family="Times,serif" font-size="14.00">__dict__</text>
</g>
<!-- 4378534528&#45;&gt;140709181590192 -->
<g id="edge9" class="edge"><title>4378534528&#45;&gt;140709181590192</title>
<path fill="none" stroke="black" d="M451.468,-52.5327C457.362,-58.1807 462.616,-64.7048 466,-72 480.552,-103.376 458.322,-119.563 432,-142 387.143,-180.237 363.589,-169.456 310,-194 303.739,-196.867 297.114,-200.021 290.747,-203.112"/>
<polygon fill="black" stroke="black" points="289.116,-200.014 281.676,-207.557 292.196,-206.3 289.116,-200.014"/>
<text text-anchor="middle" x="505" y="-120.3" font-family="Times,serif" font-size="14.00">__objclass__</text>
</g>
<!-- 4377497256&#45;&gt;4377441744 -->
<g id="edge10" class="edge"><title>4377497256&#45;&gt;4377441744</title>
<path fill="none" stroke="black" d="M374.416,-236.489C383.08,-244.181 392.365,-254.433 397,-266 417.183,-316.375 397.564,-334.018 392,-388 387.946,-427.327 398.841,-441.804 379,-476 375.581,-481.892 371.041,-487.286 366.019,-492.123"/>
<polygon fill="black" stroke="black" points="363.607,-489.583 358.392,-498.805 368.22,-494.848 363.607,-489.583"/>
<text text-anchor="middle" x="429" y="-376.3" font-family="Times,serif" font-size="14.00">value[&#39;foo&#39;]</text>
</g>
</g>
</svg>
