<?xml version="1.0" encoding="UTF-8" standalone="no"?>
<!DOCTYPE svg PUBLIC "-//W3C//DTD SVG 1.1//EN"
 "http://www.w3.org/Graphics/SVG/1.1/DTD/svg11.dtd">
<!-- Generated by graphviz version 2.34.0 (20140102.1140)
 -->
<!-- Title: G Pages: 1 -->
<svg width="507pt" height="256pt"
 viewBox="0.00 0.00 507.00 256.00" xmlns="http://www.w3.org/2000/svg" xmlns:xlink="http://www.w3.org/1999/xlink">
<g id="graph0" class="graph" transform="scale(1 1) rotate(0) translate(4 252)">
<title>G</title>
<polygon fill="white" stroke="white" points="-4,4 -4,-252 503,-252 503,4 -4,4"/>
<!-- 140709181590192 -->
<g id="node1" class="node"><title>140709181590192</title>
<ellipse fill="none" stroke="black" cx="262" cy="-221" rx="28.4872" ry="26.7407"/>
<text text-anchor="middle" x="262" y="-224.8" font-family="Times,serif" font-size="14.00">type</text>
<text text-anchor="middle" x="262" y="-209.8" font-family="Times,serif" font-size="14.00">A</text>
</g>
<!-- 4377655632 -->
<g id="node2" class="node"><title>4377655632</title>
<ellipse fill="none" stroke="black" cx="320" cy="-124" rx="36.096" ry="18"/>
<text text-anchor="middle" x="320" y="-120.3" font-family="Times,serif" font-size="14.00">dict[4]</text>
</g>
<!-- 140709181590192&#45;&gt;4377655632 -->
<g id="edge1" class="edge"><title>140709181590192&#45;&gt;4377655632</title>
<path fill="none" stroke="black" d="M278.012,-198.435C283.007,-191.408 288.406,-183.487 293,-176 297.896,-168.021 302.814,-159.073 307.087,-150.925"/>
<polygon fill="black" stroke="black" points="310.302,-152.328 311.766,-141.835 304.078,-149.124 310.302,-152.328"/>
</g>
<!-- 4377302008 -->
<g id="node3" class="node"><title>4377302008</title>
<ellipse fill="none" stroke="black" cx="225" cy="-124" rx="40.4202" ry="18"/>
<text text-anchor="middle" x="225" y="-120.3" font-family="Times,serif" font-size="14.00">tuple[2]</text>
</g>
<!-- 140709181590192&#45;&gt;4377302008 -->
<g id="edge2" class="edge"><title>140709181590192&#45;&gt;4377302008</title>
<path fill="none" stroke="black" d="M234.8,-212.286C217.207,-205.727 195.665,-194.377 185,-176 178.85,-165.402 185.169,-154.593 194.462,-145.669"/>
<polygon fill="black" stroke="black" points="197.011,-148.096 202.371,-138.957 192.482,-142.759 197.011,-148.096"/>
<text text-anchor="middle" x="212.5" y="-164.3" font-family="Times,serif" font-size="14.00">__mro__</text>
</g>
<!-- 4378534288 -->
<g id="node4" class="node"><title>4378534288</title>
<ellipse fill="none" stroke="black" cx="113" cy="-27" rx="113.267" ry="26.7407"/>
<text text-anchor="middle" x="113" y="-30.8" font-family="Times,serif" font-size="14.00">object</text>
<text text-anchor="middle" x="113" y="-15.8" font-family="Times,serif" font-size="14.00">builtins.getset_descriptor</text>
</g>
<!-- 4377655632&#45;&gt;4378534288 -->
<g id="edge7" class="edge"><title>4377655632&#45;&gt;4378534288</title>
<path fill="none" stroke="black" d="M292.538,-111.906C286.498,-109.733 280.087,-107.626 274,-106 227.834,-93.6644 209.969,-110.848 168,-88 156.15,-81.5492 145.489,-71.5643 136.778,-61.5788"/>
<polygon fill="black" stroke="black" points="139.29,-59.123 130.225,-53.638 133.891,-63.5785 139.29,-59.123"/>
<text text-anchor="middle" x="230.5" y="-76.3" font-family="Times,serif" font-size="14.00">value[&#39;__weakref__&#39;]</text>
</g>
<!-- 4378534528 -->
<g id="node5" class="node"><title>4378534528</title>
<ellipse fill="none" stroke="black" cx="386" cy="-27" rx="113.267" ry="26.7407"/>
<text text-anchor="middle" x="386" y="-30.8" font-family="Times,serif" font-size="14.00">object</text>
<text text-anchor="middle" x="386" y="-15.8" font-family="Times,serif" font-size="14.00">builtins.getset_descriptor</text>
</g>
<!-- 4377655632&#45;&gt;4378534528 -->
<g id="edge6" class="edge"><title>4377655632&#45;&gt;4378534528</title>
<path fill="none" stroke="black" d="M305.987,-107.2C298.532,-96.7935 292.179,-83.0933 299,-72 302.901,-65.6559 308.031,-60.1927 313.852,-55.4952"/>
<polygon fill="black" stroke="black" points="316.067,-58.2145 322.168,-49.5531 311.997,-52.5189 316.067,-58.2145"/>
<text text-anchor="middle" x="349" y="-76.3" font-family="Times,serif" font-size="14.00">value[&#39;__dict__&#39;]</text>
</g>
<!-- 4377302008&#45;&gt;140709181590192 -->
<g id="edge4" class="edge"><title>4377302008&#45;&gt;140709181590192</title>
<path fill="none" stroke="black" d="M232.508,-142.014C234.962,-147.706 237.657,-154.102 240,-160 243.298,-168.3 246.697,-177.313 249.807,-185.77"/>
<polygon fill="black" stroke="black" points="246.592,-187.168 253.303,-195.366 253.169,-184.772 246.592,-187.168"/>
<text text-anchor="middle" x="267.5" y="-164.3" font-family="Times,serif" font-size="14.00">item[0]</text>
</g>
<!-- 4378534288&#45;&gt;140709181590192 -->
<g id="edge3" class="edge"><title>4378534288&#45;&gt;140709181590192</title>
<path fill="none" stroke="black" d="M100.851,-54.0768C91.3579,-78.6368 82.3112,-115.513 99,-142 126.249,-185.248 184.844,-205.042 223.844,-213.717"/>
<polygon fill="black" stroke="black" points="223.29,-217.177 233.793,-215.785 224.715,-210.323 223.29,-217.177"/>
<text text-anchor="middle" x="137" y="-120.3" font-family="Times,serif" font-size="14.00">__objclass__</text>
</g>
<!-- 4378534528&#45;&gt;140709181590192 -->
<g id="edge5" class="edge"><title>4378534528&#45;&gt;140709181590192</title>
<path fill="none" stroke="black" d="M397.211,-53.8846C400.377,-64.5335 402.192,-76.9403 399,-88 383.868,-140.435 331.195,-180.173 295.747,-201.761"/>
<polygon fill="black" stroke="black" points="293.524,-199.008 286.696,-207.109 297.085,-205.035 293.524,-199.008"/>
<text text-anchor="middle" x="430" y="-120.3" font-family="Times,serif" font-size="14.00">__objclass__</text>
</g>
</g>
</svg>
