<?xml version="1.0" encoding="UTF-8" standalone="no"?>
<!DOCTYPE svg PUBLIC "-//W3C//DTD SVG 1.1//EN"
 "http://www.w3.org/Graphics/SVG/1.1/DTD/svg11.dtd">
<!-- Generated by graphviz version 2.34.0 (20131124.1427)
 -->
<!-- Title: G Pages: 1 -->
<svg width="552pt" height="256pt"
 viewBox="0.00 0.00 552.00 256.00" xmlns="http://www.w3.org/2000/svg" xmlns:xlink="http://www.w3.org/1999/xlink">
<g id="graph0" class="graph" transform="scale(1 1) rotate(0) translate(4 252)">
<title>G</title>
<polygon fill="white" stroke="white" points="-4,4 -4,-252 548,-252 548,4 -4,4"/>
<!-- 4302661760 -->
<g id="node1" class="node"><title>4302661760</title>
<ellipse fill="none" stroke="black" cx="239" cy="-221" rx="28.4872" ry="26.7407"/>
<text text-anchor="middle" x="239" y="-224.8" font-family="Times,serif" font-size="14.00">type</text>
<text text-anchor="middle" x="239" y="-209.8" font-family="Times,serif" font-size="14.00">A</text>
</g>
<!-- 4321182512 -->
<g id="node2" class="node"><title>4321182512</title>
<ellipse fill="none" stroke="black" cx="297" cy="-124" rx="36.096" ry="18"/>
<text text-anchor="middle" x="297" y="-120.3" font-family="Times,serif" font-size="14.00">dict[4]</text>
</g>
<!-- 4302661760&#45;&gt;4321182512 -->
<g id="edge1" class="edge"><title>4302661760&#45;&gt;4321182512</title>
<path fill="none" stroke="black" d="M255.947,-199.082C261.374,-191.958 267.212,-183.817 272,-176 276.813,-168.143 281.443,-159.228 285.383,-151.073"/>
<polygon fill="black" stroke="black" points="288.58,-152.498 289.659,-141.958 282.243,-149.524 288.58,-152.498"/>
</g>
<!-- 4300464568 -->
<g id="node3" class="node"><title>4300464568</title>
<ellipse fill="none" stroke="black" cx="193" cy="-124" rx="40.4202" ry="18"/>
<text text-anchor="middle" x="193" y="-120.3" font-family="Times,serif" font-size="14.00">tuple[2]</text>
</g>
<!-- 4302661760&#45;&gt;4300464568 -->
<g id="edge2" class="edge"><title>4302661760&#45;&gt;4300464568</title>
<path fill="none" stroke="black" d="M211.8,-212.286C194.207,-205.727 172.665,-194.377 162,-176 156.585,-166.669 160.703,-156.491 167.496,-147.699"/>
<polygon fill="black" stroke="black" points="170.247,-149.872 174.289,-140.078 165.022,-145.214 170.247,-149.872"/>
<text text-anchor="middle" x="189.5" y="-164.3" font-family="Times,serif" font-size="14.00">__mro__</text>
</g>
<!-- 4300455808 -->
<g id="node4" class="node"><title>4300455808</title>
<ellipse fill="none" stroke="black" cx="130" cy="-27" rx="130.223" ry="26.7407"/>
<text text-anchor="middle" x="130" y="-30.8" font-family="Times,serif" font-size="14.00">object</text>
<text text-anchor="middle" x="130" y="-15.8" font-family="Times,serif" font-size="14.00">__builtin__.getset_descriptor</text>
</g>
<!-- 4321182512&#45;&gt;4300455808 -->
<g id="edge7" class="edge"><title>4321182512&#45;&gt;4300455808</title>
<path fill="none" stroke="black" d="M267.407,-113.508C259.206,-110.972 250.282,-108.299 242,-106 209.801,-97.0622 196.234,-107.364 169,-88 159.869,-81.5077 152.332,-72.144 146.398,-62.7375"/>
<polygon fill="black" stroke="black" points="149.253,-60.6842 141.201,-53.7981 143.201,-64.2024 149.253,-60.6842"/>
<text text-anchor="middle" x="231.5" y="-76.3" font-family="Times,serif" font-size="14.00">value[&#39;__weakref__&#39;]</text>
</g>
<!-- 4300464280 -->
<g id="node5" class="node"><title>4300464280</title>
<ellipse fill="none" stroke="black" cx="414" cy="-27" rx="130.223" ry="26.7407"/>
<text text-anchor="middle" x="414" y="-30.8" font-family="Times,serif" font-size="14.00">object</text>
<text text-anchor="middle" x="414" y="-15.8" font-family="Times,serif" font-size="14.00">__builtin__.getset_descriptor</text>
</g>
<!-- 4321182512&#45;&gt;4300464280 -->
<g id="edge6" class="edge"><title>4321182512&#45;&gt;4300464280</title>
<path fill="none" stroke="black" d="M295.23,-105.721C295.054,-94.9672 296.626,-81.4362 304,-72 309.767,-64.621 316.962,-58.4749 324.894,-53.3566"/>
<polygon fill="black" stroke="black" points="326.878,-56.2521 333.759,-48.1965 323.356,-50.2023 326.878,-56.2521"/>
<text text-anchor="middle" x="354" y="-76.3" font-family="Times,serif" font-size="14.00">value[&#39;__dict__&#39;]</text>
</g>
<!-- 4300464568&#45;&gt;4302661760 -->
<g id="edge4" class="edge"><title>4300464568&#45;&gt;4302661760</title>
<path fill="none" stroke="black" d="M205.359,-141.207C209.397,-146.95 213.69,-153.583 217,-160 221.095,-167.937 224.79,-176.816 227.931,-185.258"/>
<polygon fill="black" stroke="black" points="224.707,-186.638 231.356,-194.887 231.302,-184.292 224.707,-186.638"/>
<text text-anchor="middle" x="246.5" y="-164.3" font-family="Times,serif" font-size="14.00">item[0]</text>
</g>
<!-- 4300455808&#45;&gt;4302661760 -->
<g id="edge3" class="edge"><title>4300455808&#45;&gt;4302661760</title>
<path fill="none" stroke="black" d="M126.997,-53.9244C124.735,-86.4921 126.096,-142.197 156,-176 168.439,-190.061 186.473,-200.373 202.555,-207.465"/>
<polygon fill="black" stroke="black" points="201.67,-210.886 212.249,-211.469 204.343,-204.416 201.67,-210.886"/>
</g>
<!-- 4300464280&#45;&gt;4302661760 -->
<g id="edge5" class="edge"><title>4300464280&#45;&gt;4302661760</title>
<path fill="none" stroke="black" d="M413.514,-54.0936C412.359,-65.1288 409.719,-77.768 404,-88 373.842,-141.954 311.905,-182.067 273.086,-203.186"/>
<polygon fill="black" stroke="black" points="271.412,-200.113 264.224,-207.897 274.697,-206.294 271.412,-200.113"/>
</g>
</g>
</svg>
