<?xml version="1.0" encoding="UTF-8" standalone="no"?>
<!DOCTYPE svg PUBLIC "-//W3C//DTD SVG 1.1//EN"
 "http://www.w3.org/Graphics/SVG/1.1/DTD/svg11.dtd">
<!-- Generated by graphviz version 2.34.0 (20131124.1427)
 -->
<!-- Title: G Pages: 1 -->
<svg width="564pt" height="330pt"
 viewBox="0.00 0.00 563.82 330.00" xmlns="http://www.w3.org/2000/svg" xmlns:xlink="http://www.w3.org/1999/xlink">
<g id="graph0" class="graph" transform="scale(1 1) rotate(0) translate(4 326)">
<title>G</title>
<polygon fill="white" stroke="white" points="-4,4 -4,-326 559.816,-326 559.816,4 -4,4"/>
<!-- 4298589568 -->
<g id="node1" class="node"><title>4298589568</title>
<ellipse fill="none" stroke="black" cx="410" cy="-304" rx="36.096" ry="18"/>
<text text-anchor="middle" x="410" y="-300.3" font-family="Times,serif" font-size="14.00">dict[4]</text>
</g>
<!-- 4299966584 -->
<g id="node2" class="node"><title>4299966584</title>
<ellipse fill="none" stroke="black" cx="130" cy="-207" rx="130.223" ry="26.7407"/>
<text text-anchor="middle" x="130" y="-210.8" font-family="Times,serif" font-size="14.00">object</text>
<text text-anchor="middle" x="130" y="-195.8" font-family="Times,serif" font-size="14.00">__builtin__.getset_descriptor</text>
</g>
<!-- 4298589568&#45;&gt;4299966584 -->
<g id="edge1" class="edge"><title>4298589568&#45;&gt;4299966584</title>
<path fill="none" stroke="black" d="M380.851,-293.224C359.996,-286.222 331.261,-276.556 306,-268 272.749,-256.737 235.987,-244.216 204.698,-233.538"/>
<polygon fill="black" stroke="black" points="205.768,-230.204 195.174,-230.286 203.507,-236.829 205.768,-230.204"/>
<text text-anchor="middle" x="356" y="-256.3" font-family="Times,serif" font-size="14.00">value[&#39;__dict__&#39;]</text>
</g>
<!-- 4299966512 -->
<g id="node3" class="node"><title>4299966512</title>
<ellipse fill="none" stroke="black" cx="410" cy="-207" rx="130.223" ry="26.7407"/>
<text text-anchor="middle" x="410" y="-210.8" font-family="Times,serif" font-size="14.00">object</text>
<text text-anchor="middle" x="410" y="-195.8" font-family="Times,serif" font-size="14.00">__builtin__.getset_descriptor</text>
</g>
<!-- 4298589568&#45;&gt;4299966512 -->
<g id="edge2" class="edge"><title>4298589568&#45;&gt;4299966512</title>
<path fill="none" stroke="black" d="M410,-285.576C410,-273.938 410,-258.208 410,-243.954"/>
<polygon fill="black" stroke="black" points="413.5,-243.916 410,-233.916 406.5,-243.916 413.5,-243.916"/>
<text text-anchor="middle" x="472.5" y="-256.3" font-family="Times,serif" font-size="14.00">value[&#39;__weakref__&#39;]</text>
</g>
<!-- 4298588624 -->
<g id="node4" class="node"><title>4298588624</title>
<ellipse fill="none" stroke="black" cx="410" cy="-115" rx="28.4872" ry="26.7407"/>
<text text-anchor="middle" x="410" y="-118.8" font-family="Times,serif" font-size="14.00">type</text>
<text text-anchor="middle" x="410" y="-103.8" font-family="Times,serif" font-size="14.00">A</text>
</g>
<!-- 4299966584&#45;&gt;4298588624 -->
<g id="edge7" class="edge"><title>4299966584&#45;&gt;4298588624</title>
<path fill="none" stroke="black" d="M198.496,-183.984C253.77,-166.217 329.372,-141.916 373.615,-127.695"/>
<polygon fill="black" stroke="black" points="374.909,-130.956 383.358,-124.563 372.767,-124.291 374.909,-130.956"/>
</g>
<!-- 4299966512&#45;&gt;4298588624 -->
<g id="edge5" class="edge"><title>4299966512&#45;&gt;4298588624</title>
<path fill="none" stroke="black" d="M410,-179.968C410,-171.293 410,-161.466 410,-152.164"/>
<polygon fill="black" stroke="black" points="413.5,-151.973 410,-141.973 406.5,-151.973 413.5,-151.973"/>
</g>
<!-- 4298588624&#45;&gt;4298589568 -->
<g id="edge3" class="edge"><title>4298588624&#45;&gt;4298589568</title>
<path fill="none" stroke="black" d="M438.274,-119.939C471.338,-126.225 524.641,-141.968 549,-180 561.944,-200.21 552.421,-210.245 549,-234 546.755,-249.59 550.255,-256.98 539,-268 517.166,-289.377 483.664,-298.023 456.273,-301.379"/>
<polygon fill="black" stroke="black" points="455.702,-297.919 446.112,-302.422 456.417,-304.883 455.702,-297.919"/>
</g>
<!-- 4299966440 -->
<g id="node5" class="node"><title>4299966440</title>
<ellipse fill="none" stroke="black" cx="410" cy="-18" rx="40.4202" ry="18"/>
<text text-anchor="middle" x="410" y="-14.3" font-family="Times,serif" font-size="14.00">tuple[2]</text>
</g>
<!-- 4298588624&#45;&gt;4299966440 -->
<g id="edge4" class="edge"><title>4298588624&#45;&gt;4299966440</title>
<path fill="none" stroke="black" d="M389.188,-95.8644C382.352,-88.5941 375.59,-79.6491 372,-70 369.52,-63.3352 369.144,-60.5125 372,-54 374.151,-49.0946 377.366,-44.5732 381.032,-40.5236"/>
<polygon fill="black" stroke="black" points="383.71,-42.803 388.476,-33.3406 378.85,-37.7657 383.71,-42.803"/>
<text text-anchor="middle" x="399.5" y="-58.3" font-family="Times,serif" font-size="14.00">__mro__</text>
</g>
<!-- 4299966440&#45;&gt;4298588624 -->
<g id="edge6" class="edge"><title>4299966440&#45;&gt;4298588624</title>
<path fill="none" stroke="black" d="M419.918,-35.5195C422.792,-41.1781 425.546,-47.68 427,-54 429.028,-62.816 427.921,-72.2689 425.51,-81.0037"/>
<polygon fill="black" stroke="black" points="422.19,-79.8943 422.33,-90.4882 428.827,-82.1191 422.19,-79.8943"/>
<text text-anchor="middle" x="450.5" y="-58.3" font-family="Times,serif" font-size="14.00">item[0]</text>
</g>
</g>
</svg>
