<?xml version="1.0" encoding="UTF-8" standalone="no"?>
<!DOCTYPE svg PUBLIC "-//W3C//DTD SVG 1.1//EN"
 "http://www.w3.org/Graphics/SVG/1.1/DTD/svg11.dtd">
<!-- Generated by graphviz version 2.34.0 (20131223.1621)
 -->
<!-- Title: G Pages: 1 -->
<svg width="499pt" height="256pt"
 viewBox="0.00 0.00 499.00 256.00" xmlns="http://www.w3.org/2000/svg" xmlns:xlink="http://www.w3.org/1999/xlink">
<g id="graph0" class="graph" transform="scale(1 1) rotate(0) translate(4 252)">
<title>G</title>
<polygon fill="white" stroke="white" points="-4,4 -4,-252 495,-252 495,4 -4,4"/>
<!-- 140388443014240 -->
<g id="node1" class="node"><title>140388443014240</title>
<ellipse fill="none" stroke="black" cx="206" cy="-221" rx="28.4872" ry="26.7407"/>
<text text-anchor="middle" x="206" y="-224.8" font-family="Times,serif" font-size="14.00">type</text>
<text text-anchor="middle" x="206" y="-209.8" font-family="Times,serif" font-size="14.00">A</text>
</g>
<!-- 4494707384 -->
<g id="node2" class="node"><title>4494707384</title>
<ellipse fill="none" stroke="black" cx="259" cy="-124" rx="36.096" ry="18"/>
<text text-anchor="middle" x="259" y="-120.3" font-family="Times,serif" font-size="14.00">dict[4]</text>
</g>
<!-- 140388443014240&#45;&gt;4494707384 -->
<g id="edge1" class="edge"><title>140388443014240&#45;&gt;4494707384</title>
<path fill="none" stroke="black" d="M222.69,-199.197C227.97,-192.081 233.576,-183.915 238,-176 242.318,-168.275 246.255,-159.481 249.524,-151.396"/>
<polygon fill="black" stroke="black" points="252.813,-152.595 253.16,-142.006 246.285,-150.067 252.813,-152.595"/>
</g>
<!-- 4494894360 -->
<g id="node3" class="node"><title>4494894360</title>
<ellipse fill="none" stroke="black" cx="164" cy="-124" rx="40.4202" ry="18"/>
<text text-anchor="middle" x="164" y="-120.3" font-family="Times,serif" font-size="14.00">tuple[2]</text>
</g>
<!-- 140388443014240&#45;&gt;4494894360 -->
<g id="edge2" class="edge"><title>140388443014240&#45;&gt;4494894360</title>
<path fill="none" stroke="black" d="M178.8,-212.286C161.207,-205.727 139.665,-194.377 129,-176 123.231,-166.059 128.404,-155.516 136.378,-146.611"/>
<polygon fill="black" stroke="black" points="138.87,-149.069 143.556,-139.566 133.967,-144.073 138.87,-149.069"/>
<text text-anchor="middle" x="156.5" y="-164.3" font-family="Times,serif" font-size="14.00">__mro__</text>
</g>
<!-- 4495441344 -->
<g id="node4" class="node"><title>4495441344</title>
<ellipse fill="none" stroke="black" cx="113" cy="-27" rx="113.267" ry="26.7407"/>
<text text-anchor="middle" x="113" y="-30.8" font-family="Times,serif" font-size="14.00">object</text>
<text text-anchor="middle" x="113" y="-15.8" font-family="Times,serif" font-size="14.00">builtins.getset_descriptor</text>
</g>
<!-- 4494707384&#45;&gt;4495441344 -->
<g id="edge5" class="edge"><title>4494707384&#45;&gt;4495441344</title>
<path fill="none" stroke="black" d="M230.905,-112.213C225.02,-110.067 218.83,-107.894 213,-106 184.897,-96.8713 172.482,-105.935 149,-88 140.367,-81.4063 133.373,-72.0983 127.926,-62.7766"/>
<polygon fill="black" stroke="black" points="130.987,-61.0794 123.174,-53.9233 124.819,-64.3897 130.987,-61.0794"/>
<text text-anchor="middle" x="199" y="-76.3" font-family="Times,serif" font-size="14.00">value[&#39;__dict__&#39;]</text>
</g>
<!-- 4496109888 -->
<g id="node5" class="node"><title>4496109888</title>
<ellipse fill="none" stroke="black" cx="378" cy="-27" rx="113.267" ry="26.7407"/>
<text text-anchor="middle" x="378" y="-30.8" font-family="Times,serif" font-size="14.00">object</text>
<text text-anchor="middle" x="378" y="-15.8" font-family="Times,serif" font-size="14.00">builtins.getset_descriptor</text>
</g>
<!-- 4494707384&#45;&gt;4496109888 -->
<g id="edge4" class="edge"><title>4494707384&#45;&gt;4496109888</title>
<path fill="none" stroke="black" d="M253.905,-105.92C251.798,-95.2461 251.205,-81.7289 258,-72 264.584,-62.5729 273.42,-55.1595 283.326,-49.3307"/>
<polygon fill="black" stroke="black" points="285.067,-52.3692 292.276,-44.6056 281.799,-46.1788 285.067,-52.3692"/>
<text text-anchor="middle" x="320.5" y="-76.3" font-family="Times,serif" font-size="14.00">value[&#39;__weakref__&#39;]</text>
</g>
<!-- 4494894360&#45;&gt;140388443014240 -->
<g id="edge7" class="edge"><title>4494894360&#45;&gt;140388443014240</title>
<path fill="none" stroke="black" d="M174.146,-141.433C177.499,-147.194 181.108,-153.781 184,-160 187.766,-168.098 191.339,-177.037 194.468,-185.486"/>
<polygon fill="black" stroke="black" points="191.247,-186.872 197.922,-195.1 197.835,-184.505 191.247,-186.872"/>
<text text-anchor="middle" x="212.5" y="-164.3" font-family="Times,serif" font-size="14.00">item[0]</text>
</g>
<!-- 4495441344&#45;&gt;140388443014240 -->
<g id="edge3" class="edge"><title>4495441344&#45;&gt;140388443014240</title>
<path fill="none" stroke="black" d="M106.681,-53.8607C100.44,-86.1056 95.3765,-141.209 123,-176 134.869,-190.948 153.232,-201.425 169.671,-208.394"/>
<polygon fill="black" stroke="black" points="168.478,-211.686 179.064,-212.099 171.046,-205.174 168.478,-211.686"/>
</g>
<!-- 4496109888&#45;&gt;140388443014240 -->
<g id="edge6" class="edge"><title>4496109888&#45;&gt;140388443014240</title>
<path fill="none" stroke="black" d="M386.003,-53.9603C387.954,-64.9718 388.203,-77.6294 383,-88 353.435,-146.93 283.703,-186.258 241.12,-205.723"/>
<polygon fill="black" stroke="black" points="239.67,-202.538 231.954,-209.799 242.513,-208.934 239.67,-202.538"/>
</g>
</g>
</svg>
