<?xml version="1.0" encoding="UTF-8" standalone="no"?>
<!DOCTYPE svg PUBLIC "-//W3C//DTD SVG 1.1//EN"
 "http://www.w3.org/Graphics/SVG/1.1/DTD/svg11.dtd">
<!-- Generated by graphviz version 2.34.0 (20140102.1140)
 -->
<!-- Title: G Pages: 1 -->
<svg width="220pt" height="344pt"
 viewBox="0.00 0.00 220.00 344.00" xmlns="http://www.w3.org/2000/svg" xmlns:xlink="http://www.w3.org/1999/xlink">
<g id="graph0" class="graph" transform="scale(1 1) rotate(0) translate(4 340)">
<title>G</title>
<polygon fill="white" stroke="white" points="-4,4 -4,-340 216,-340 216,4 -4,4"/>
<!-- 4377497256 -->
<g id="node1" class="node"><title>4377497256</title>
<ellipse fill="none" stroke="black" cx="111" cy="-318" rx="36.096" ry="18"/>
<text text-anchor="middle" x="111" y="-314.3" font-family="Times,serif" font-size="14.00">dict[1]</text>
</g>
<!-- 4377441744 -->
<g id="node2" class="node"><title>4377441744</title>
<ellipse fill="none" stroke="black" cx="62" cy="-221" rx="62.3993" ry="26.7407"/>
<text text-anchor="middle" x="62" y="-224.8" font-family="Times,serif" font-size="14.00">object</text>
<text text-anchor="middle" x="62" y="-209.8" font-family="Times,serif" font-size="14.00">__main__.A</text>
</g>
<!-- 4377497256&#45;&gt;4377441744 -->
<g id="edge1" class="edge"><title>4377497256&#45;&gt;4377441744</title>
<path fill="none" stroke="black" d="M89.8927,-303.206C82.7833,-297.492 75.5159,-290.258 71,-282 67.0556,-274.787 64.6798,-266.396 63.2827,-258.214"/>
<polygon fill="black" stroke="black" points="66.7261,-257.547 61.9921,-248.068 59.782,-258.43 66.7261,-257.547"/>
<text text-anchor="middle" x="105" y="-270.3" font-family="Times,serif" font-size="14.00">value[&#39;foo&#39;]</text>
</g>
<!-- 4377115536 -->
<g id="node4" class="node"><title>4377115536</title>
<ellipse fill="none" stroke="black" cx="67" cy="-124" rx="36.096" ry="18"/>
<text text-anchor="middle" x="67" y="-120.3" font-family="Times,serif" font-size="14.00">dict[1]</text>
</g>
<!-- 4377441744&#45;&gt;4377115536 -->
<g id="edge3" class="edge"><title>4377441744&#45;&gt;4377115536</title>
<path fill="none" stroke="black" d="M63.3663,-194.041C64.0439,-181.165 64.8626,-165.61 65.5512,-152.527"/>
<polygon fill="black" stroke="black" points="69.0626,-152.401 66.0931,-142.231 62.0722,-152.034 69.0626,-152.401"/>
<text text-anchor="middle" x="92" y="-164.3" font-family="Times,serif" font-size="14.00">__dict__</text>
</g>
<!-- 4377319056 -->
<g id="node3" class="node"><title>4377319056</title>
<ellipse fill="none" stroke="black" cx="111" cy="-27" rx="62.3993" ry="26.7407"/>
<text text-anchor="middle" x="111" y="-30.8" font-family="Times,serif" font-size="14.00">object</text>
<text text-anchor="middle" x="111" y="-15.8" font-family="Times,serif" font-size="14.00">__main__.A</text>
</g>
<!-- 4377319056&#45;&gt;4377497256 -->
<g id="edge2" class="edge"><title>4377319056&#45;&gt;4377497256</title>
<path fill="none" stroke="black" d="M130.208,-52.8696C133.827,-58.831 137.076,-65.393 139,-72 165.095,-161.611 169.894,-193.928 139,-282 137.58,-286.048 135.473,-289.975 133.042,-293.646"/>
<polygon fill="black" stroke="black" points="130.2,-291.601 126.947,-301.684 135.778,-295.83 130.2,-291.601"/>
<text text-anchor="middle" x="186" y="-164.3" font-family="Times,serif" font-size="14.00">__dict__</text>
</g>
<!-- 4377115536&#45;&gt;4377319056 -->
<g id="edge4" class="edge"><title>4377115536&#45;&gt;4377319056</title>
<path fill="none" stroke="black" d="M65.6235,-105.8C65.4586,-95.5838 66.4185,-82.5978 71,-72 72.8972,-67.6114 75.4171,-63.3706 78.2723,-59.3679"/>
<polygon fill="black" stroke="black" points="81.0313,-61.5216 84.5117,-51.5147 75.5506,-57.1671 81.0313,-61.5216"/>
<text text-anchor="middle" x="105" y="-76.3" font-family="Times,serif" font-size="14.00">value[&#39;foo&#39;]</text>
</g>
</g>
</svg>
