<?xml version="1.0" encoding="UTF-8" standalone="no"?>
<!DOCTYPE svg PUBLIC "-//W3C//DTD SVG 1.1//EN"
 "http://www.w3.org/Graphics/SVG/1.1/DTD/svg11.dtd">
<!-- Generated by graphviz version 2.34.0 (20131124.1427)
 -->
<!-- Title: G Pages: 1 -->
<svg width="236pt" height="344pt"
 viewBox="0.00 0.00 236.00 344.00" xmlns="http://www.w3.org/2000/svg" xmlns:xlink="http://www.w3.org/1999/xlink">
<g id="graph0" class="graph" transform="scale(1 1) rotate(0) translate(4 340)">
<title>G</title>
<polygon fill="white" stroke="white" points="-4,4 -4,-340 232,-340 232,4 -4,4"/>
<!-- 4299804880 -->
<g id="node1" class="node"><title>4299804880</title>
<ellipse fill="none" stroke="black" cx="113" cy="-309" rx="62.3993" ry="26.7407"/>
<text text-anchor="middle" x="113" y="-312.8" font-family="Times,serif" font-size="14.00">object</text>
<text text-anchor="middle" x="113" y="-297.8" font-family="Times,serif" font-size="14.00">__main__.A</text>
</g>
<!-- 4298837072 -->
<g id="node2" class="node"><title>4298837072</title>
<ellipse fill="none" stroke="black" cx="68" cy="-212" rx="36.096" ry="18"/>
<text text-anchor="middle" x="68" y="-208.3" font-family="Times,serif" font-size="14.00">dict[1]</text>
</g>
<!-- 4299804880&#45;&gt;4298837072 -->
<g id="edge1" class="edge"><title>4299804880&#45;&gt;4298837072</title>
<path fill="none" stroke="black" d="M97.0926,-282.825C93.558,-276.771 89.9802,-270.246 87,-264 83.281,-256.205 79.7955,-247.475 76.8509,-239.471"/>
<polygon fill="black" stroke="black" points="80.0777,-238.098 73.4334,-229.846 73.4812,-240.44 80.0777,-238.098"/>
<text text-anchor="middle" x="113" y="-252.3" font-family="Times,serif" font-size="14.00">__dict__</text>
</g>
<!-- 4300091728 -->
<g id="node3" class="node"><title>4300091728</title>
<ellipse fill="none" stroke="black" cx="62" cy="-115" rx="62.3993" ry="26.7407"/>
<text text-anchor="middle" x="62" y="-118.8" font-family="Times,serif" font-size="14.00">object</text>
<text text-anchor="middle" x="62" y="-103.8" font-family="Times,serif" font-size="14.00">__main__.A</text>
</g>
<!-- 4298837072&#45;&gt;4300091728 -->
<g id="edge2" class="edge"><title>4298837072&#45;&gt;4300091728</title>
<path fill="none" stroke="black" d="M65.1289,-193.958C64.2865,-188.264 63.4667,-181.874 63,-176 62.3861,-168.273 62.0446,-159.97 61.869,-152.078"/>
<polygon fill="black" stroke="black" points="65.3679,-151.972 61.7247,-142.023 58.3686,-152.073 65.3679,-151.972"/>
<text text-anchor="middle" x="97" y="-164.3" font-family="Times,serif" font-size="14.00">value[&#39;foo&#39;]</text>
</g>
<!-- 4298666880 -->
<g id="node4" class="node"><title>4298666880</title>
<ellipse fill="none" stroke="black" cx="113" cy="-18" rx="36.096" ry="18"/>
<text text-anchor="middle" x="113" y="-14.3" font-family="Times,serif" font-size="14.00">dict[1]</text>
</g>
<!-- 4300091728&#45;&gt;4298666880 -->
<g id="edge3" class="edge"><title>4300091728&#45;&gt;4298666880</title>
<path fill="none" stroke="black" d="M71.134,-88.2439C75.3877,-77.3872 80.8661,-64.7918 87,-54 89.104,-50.2983 91.5387,-46.5335 94.0571,-42.9121"/>
<polygon fill="black" stroke="black" points="96.8963,-44.9589 99.9693,-34.8195 91.244,-40.8295 96.8963,-44.9589"/>
<text text-anchor="middle" x="113" y="-58.3" font-family="Times,serif" font-size="14.00">__dict__</text>
</g>
<!-- 4298666880&#45;&gt;4299804880 -->
<g id="edge4" class="edge"><title>4298666880&#45;&gt;4299804880</title>
<path fill="none" stroke="black" d="M127.824,-34.4914C132.314,-40.1774 136.67,-46.9572 139,-54 168.311,-142.611 163.612,-173.97 139,-264 138.083,-267.354 136.838,-270.712 135.386,-273.995"/>
<polygon fill="black" stroke="black" points="132.232,-272.475 130.849,-282.979 138.481,-275.63 132.232,-272.475"/>
<text text-anchor="middle" x="194" y="-164.3" font-family="Times,serif" font-size="14.00">value[&#39;foo&#39;]</text>
</g>
</g>
</svg>
