<?xml version="1.0" encoding="UTF-8" standalone="no"?>
<!DOCTYPE svg PUBLIC "-//W3C//DTD SVG 1.1//EN"
 "http://www.w3.org/Graphics/SVG/1.1/DTD/svg11.dtd">
<!-- Generated by graphviz version 2.34.0 (20131124.1427)
 -->
<!-- Title: G Pages: 1 -->
<svg width="192pt" height="220pt"
 viewBox="0.00 0.00 192.00 220.00" xmlns="http://www.w3.org/2000/svg" xmlns:xlink="http://www.w3.org/1999/xlink">
<g id="graph0" class="graph" transform="scale(1 1) rotate(0) translate(4 216)">
<title>G</title>
<polygon fill="white" stroke="white" points="-4,4 -4,-216 188,-216 188,4 -4,4"/>
<!-- 4299970032 -->
<g id="node1" class="node"><title>4299970032</title>
<ellipse fill="none" stroke="black" cx="63" cy="-194" rx="33.2209" ry="18"/>
<text text-anchor="middle" x="63" y="-190.3" font-family="Times,serif" font-size="14.00">list[2]</text>
</g>
<!-- 4298181248 -->
<g id="node2" class="node"><title>4298181248</title>
<ellipse fill="none" stroke="black" cx="27" cy="-106" rx="27" ry="18"/>
<text text-anchor="middle" x="27" y="-102.3" font-family="Times,serif" font-size="14.00">37</text>
</g>
<!-- 4299970032&#45;&gt;4298181248 -->
<g id="edge1" class="edge"><title>4299970032&#45;&gt;4298181248</title>
<path fill="none" stroke="black" d="M47.3557,-177.897C42.2953,-172.145 37.1756,-165.224 34,-158 30.7856,-150.688 28.9624,-142.265 27.9509,-134.398"/>
<polygon fill="black" stroke="black" points="31.4123,-133.814 27.0201,-124.173 24.4411,-134.449 31.4123,-133.814"/>
<text text-anchor="middle" x="55.5" y="-146.3" font-family="Times,serif" font-size="14.00">item[1]</text>
</g>
<!-- 4299969888 -->
<g id="node3" class="node"><title>4299969888</title>
<ellipse fill="none" stroke="black" cx="105" cy="-106" rx="33.2209" ry="18"/>
<text text-anchor="middle" x="105" y="-102.3" font-family="Times,serif" font-size="14.00">list[2]</text>
</g>
<!-- 4299970032&#45;&gt;4299969888 -->
<g id="edge2" class="edge"><title>4299970032&#45;&gt;4299969888</title>
<path fill="none" stroke="black" d="M71.098,-176.418C77.1408,-164.045 85.5106,-146.907 92.4217,-132.755"/>
<polygon fill="black" stroke="black" points="95.6834,-134.052 96.9268,-123.531 89.3934,-130.981 95.6834,-134.052"/>
<text text-anchor="middle" x="109.5" y="-146.3" font-family="Times,serif" font-size="14.00">item[0]</text>
</g>
<!-- 4299781488 -->
<g id="node4" class="node"><title>4299781488</title>
<ellipse fill="none" stroke="black" cx="59" cy="-18" rx="38.0212" ry="18"/>
<text text-anchor="middle" x="59" y="-14.3" font-family="Times,serif" font-size="14.00">&#39;world&#39;</text>
</g>
<!-- 4299969888&#45;&gt;4299781488 -->
<g id="edge3" class="edge"><title>4299969888&#45;&gt;4299781488</title>
<path fill="none" stroke="black" d="M90.6888,-89.4276C85.8775,-83.6313 80.7785,-76.8026 77,-70 72.8326,-62.4972 69.3463,-53.8503 66.5862,-45.8328"/>
<polygon fill="black" stroke="black" points="69.8671,-44.6019 63.4816,-36.1475 63.2012,-46.7386 69.8671,-44.6019"/>
<text text-anchor="middle" x="98.5" y="-58.3" font-family="Times,serif" font-size="14.00">item[1]</text>
</g>
<!-- 4299781440 -->
<g id="node5" class="node"><title>4299781440</title>
<ellipse fill="none" stroke="black" cx="150" cy="-18" rx="34.1708" ry="18"/>
<text text-anchor="middle" x="150" y="-14.3" font-family="Times,serif" font-size="14.00">&#39;hello&#39;</text>
</g>
<!-- 4299969888&#45;&gt;4299781440 -->
<g id="edge4" class="edge"><title>4299969888&#45;&gt;4299781440</title>
<path fill="none" stroke="black" d="M113.676,-88.4183C120.151,-76.0451 129.118,-58.9069 136.523,-44.7555"/>
<polygon fill="black" stroke="black" points="139.815,-46.0138 141.35,-35.5308 133.613,-42.7684 139.815,-46.0138"/>
<text text-anchor="middle" x="153.5" y="-58.3" font-family="Times,serif" font-size="14.00">item[0]</text>
</g>
</g>
</svg>
