<?xml version="1.0" encoding="UTF-8" standalone="no"?>
<!DOCTYPE svg PUBLIC "-//W3C//DTD SVG 1.1//EN"
 "http://www.w3.org/Graphics/SVG/1.1/DTD/svg11.dtd">
<!-- Generated by graphviz version 8.1.0 (20230707.0739)
 -->
<!-- Title: G Pages: 1 -->
<svg width="188pt" height="221pt"
 viewBox="0.00 0.00 188.41 221.00" xmlns="http://www.w3.org/2000/svg" xmlns:xlink="http://www.w3.org/1999/xlink">
<g id="graph0" class="graph" transform="scale(1 1) rotate(0) translate(4 217)">
<title>G</title>
<polygon fill="white" stroke="none" points="-4,4 -4,-217 184.41,-217 184.41,4 -4,4"/>
<!-- 4310878400 -->
<g id="node1" class="node">
<title>4310878400</title>
<ellipse fill="none" stroke="black" cx="59" cy="-195" rx="32.93" ry="18"/>
<text text-anchor="middle" x="59" y="-189.95" font-family="Times,serif" font-size="14.00">list[2]</text>
</g>
<!-- 4321840352 -->
<g id="node2" class="node">
<title>4321840352</title>
<ellipse fill="none" stroke="black" cx="27" cy="-106.5" rx="27" ry="18"/>
<text text-anchor="middle" x="27" y="-101.45" font-family="Times,serif" font-size="14.00">37</text>
</g>
<!-- 4310878400&#45;&gt;4321840352 -->
<g id="edge1" class="edge">
<title>4310878400&#45;&gt;4321840352</title>
<path fill="none" stroke="black" d="M46.22,-178.08C42.21,-172.36 38.14,-165.67 35.5,-159 32.58,-151.64 30.67,-143.31 29.41,-135.52"/>
<polygon fill="black" stroke="black" points="32.76,-135.15 28,-125.69 25.82,-136.06 32.76,-135.15"/>
<text text-anchor="middle" x="56.25" y="-145.7" font-family="Times,serif" font-size="14.00">item[1]</text>
</g>
<!-- 4310880256 -->
<g id="node3" class="node">
<title>4310880256</title>
<ellipse fill="none" stroke="black" cx="105" cy="-106.5" rx="32.93" ry="18"/>
<text text-anchor="middle" x="105" y="-101.45" font-family="Times,serif" font-size="14.00">list[2]</text>
</g>
<!-- 4310878400&#45;&gt;4310880256 -->
<g id="edge2" class="edge">
<title>4310878400&#45;&gt;4310880256</title>
<path fill="none" stroke="black" d="M67.87,-177.32C74.42,-165 83.48,-147.97 91.01,-133.82"/>
<polygon fill="black" stroke="black" points="94.55,-135.6 96.16,-125.13 88.37,-132.31 94.55,-135.6"/>
<text text-anchor="middle" x="106.25" y="-145.7" font-family="Times,serif" font-size="14.00">item[0]</text>
</g>
<!-- 4312438688 -->
<g id="node4" class="node">
<title>4312438688</title>
<ellipse fill="none" stroke="black" cx="62" cy="-18" rx="35.49" ry="18"/>
<text text-anchor="middle" x="62" y="-12.95" font-family="Times,serif" font-size="14.00">&#39;world&#39;</text>
</g>
<!-- 4310880256&#45;&gt;4312438688 -->
<g id="edge3" class="edge">
<title>4310880256&#45;&gt;4312438688</title>
<path fill="none" stroke="black" d="M95.4,-88.91C92.15,-83.14 88.58,-76.58 85.5,-70.5 81.49,-62.57 77.38,-53.82 73.75,-45.82"/>
<polygon fill="black" stroke="black" points="76.57,-44.56 69.28,-36.86 70.18,-47.42 76.57,-44.56"/>
<text text-anchor="middle" x="105.25" y="-57.2" font-family="Times,serif" font-size="14.00">item[1]</text>
</g>
<!-- 4312433216 -->
<g id="node5" class="node">
<title>4312433216</title>
<ellipse fill="none" stroke="black" cx="148" cy="-18" rx="32.41" ry="18"/>
<text text-anchor="middle" x="148" y="-12.95" font-family="Times,serif" font-size="14.00">&#39;hello&#39;</text>
</g>
<!-- 4310880256&#45;&gt;4312433216 -->
<g id="edge4" class="edge">
<title>4310880256&#45;&gt;4312433216</title>
<path fill="none" stroke="black" d="M115.52,-89.03C119.02,-83.26 122.84,-76.68 126,-70.5 130,-62.67 133.91,-53.95 137.31,-45.95"/>
<polygon fill="black" stroke="black" points="140.85,-47.54 141.43,-36.97 134.38,-44.87 140.85,-47.54"/>
<text text-anchor="middle" x="153.25" y="-57.2" font-family="Times,serif" font-size="14.00">item[0]</text>
</g>
</g>
</svg>
